<svg width="135" height="34" viewBox="0 0 135 34" fill="none" xmlns="http://www.w3.org/2000/svg">
<path d="M16.1165 6.6499V2.3999H2.71651V31.5999H16.1165V27.3499C13.3715 27.3499 10.7389 26.2594 8.79795 24.3184C6.85695 22.3774 5.76651 19.7449 5.76651 16.9999C5.76651 14.2549 6.85695 11.6223 8.79795 9.68135C10.7389 7.74035 13.3715 6.6499 16.1165 6.6499Z" fill="#F97316"/>
<path d="M16.1165 6.6499V27.3499C18.8615 27.3499 21.4941 26.2594 23.4351 24.3184C25.3761 22.3774 26.4665 19.7449 26.4665 16.9999C26.4665 14.2549 25.3761 11.6223 23.4351 9.68135C21.4941 7.74035 18.8615 6.6499 16.1165 6.6499Z" fill="#F97316"/>
<path d="M33.9865 9.25H36.9865V23.7H33.9865V9.25Z" fill="#F97316"/>
<path d="M38.6665 18.7499C38.6665 17.7103 38.9752 16.6941 39.5534 15.8301C40.1316 14.9661 40.9533 14.2932 41.9144 13.8967C42.8755 13.5003 43.9326 13.3981 44.9518 13.6031C45.971 13.8081 46.9064 14.3111 47.6394 15.0483C48.3724 15.7856 48.8701 16.7238 49.0693 17.7442C49.2684 18.7646 49.1602 19.8211 48.7582 20.7799C48.3562 21.7386 47.6787 22.5565 46.8114 23.1297C45.9441 23.703 44.9261 24.0058 43.8865 23.9999C43.197 24.0053 42.5133 23.873 41.8756 23.6106C41.2379 23.3483 40.6589 22.9613 40.1727 22.4724C39.6865 21.9834 39.3029 21.4022 39.0442 20.763C38.7856 20.1238 38.6572 19.4394 38.6665 18.7499ZM46.1865 18.7499C46.1747 18.3017 46.031 17.8669 45.7734 17.5C45.5158 17.133 45.1558 16.8501 44.7382 16.6867C44.3207 16.5233 43.8643 16.4866 43.4261 16.5813C42.9878 16.6759 42.5872 16.8976 42.2743 17.2188C41.9614 17.5399 41.7501 17.9461 41.6669 18.3867C41.5837 18.8273 41.6322 19.2826 41.8064 19.6957C41.9806 20.1088 42.2727 20.4615 42.6463 20.7094C43.0198 20.9574 43.4581 21.0897 43.9065 21.0899C44.2118 21.0959 44.515 21.0388 44.7972 20.9222C45.0794 20.8057 45.3345 20.6322 45.5466 20.4126C45.7587 20.193 45.9232 19.9319 46.0299 19.6459C46.1366 19.3598 46.1831 19.0548 46.1665 18.7499H46.1865Z" fill="#F97316"/>
<path d="M60.9765 13.8001V23.2101C60.9765 26.5301 58.3765 27.9401 55.7465 27.9401C54.8188 28.0162 53.8883 27.8319 53.0598 27.4079C52.2312 26.9839 51.5374 26.337 51.0565 25.5401L53.5865 24.0801C53.7915 24.4935 54.1176 24.8345 54.5214 25.0578C54.9252 25.2811 55.3874 25.3761 55.8465 25.3301C56.139 25.3661 56.4358 25.3371 56.7157 25.2451C56.9957 25.153 57.2518 25.0003 57.4658 24.7977C57.6799 24.5951 57.8465 24.3478 57.9538 24.0733C58.0611 23.7989 58.1064 23.5041 58.0865 23.2101V22.3001C57.7374 22.7234 57.2944 23.0594 56.7928 23.2816C56.2911 23.5038 55.7446 23.606 55.1965 23.5801C53.8704 23.5801 52.5987 23.0533 51.661 22.1156C50.7233 21.178 50.1965 19.9062 50.1965 18.5801C50.1965 17.254 50.7233 15.9823 51.661 15.0446C52.5987 14.1069 53.8704 13.5801 55.1965 13.5801C55.7446 13.5542 56.2911 13.6564 56.7928 13.8786C57.2944 14.1008 57.7374 14.4368 58.0865 14.8601V13.8601L60.9765 13.8001ZM58.0865 18.5501C58.1064 18.0717 57.9828 17.5982 57.7315 17.1906C57.4802 16.783 57.1128 16.4599 56.6763 16.2628C56.2399 16.0657 55.7546 16.0037 55.2826 16.0847C54.8107 16.1657 54.3737 16.386 54.028 16.7173C53.6823 17.0486 53.4436 17.4758 53.3426 17.9439C53.2416 18.412 53.2829 18.8995 53.4612 19.3439C53.6396 19.7883 53.9468 20.1692 54.3433 20.4376C54.7399 20.706 55.2077 20.8497 55.6865 20.8501C55.999 20.8726 56.3127 20.8293 56.6073 20.7231C56.902 20.6168 57.1712 20.4499 57.3973 20.2331C57.6235 20.0164 57.8017 19.7546 57.9204 19.4647C58.0391 19.1748 58.0957 18.8632 58.0865 18.5501Z" fill="#F97316"/>
<path d="M62.6665 18.75C62.6665 17.7112 62.9747 16.6958 63.552 15.8322C64.1293 14.9686 64.9498 14.2957 65.9097 13.8987C66.8696 13.5016 67.9257 13.3982 68.9444 13.6016C69.9631 13.805 70.8985 14.306 71.6324 15.0412C72.3662 15.7765 72.8654 16.7129 73.0668 17.7319C73.2683 18.751 73.1629 19.8069 72.764 20.766C72.3651 21.7252 71.6906 22.5444 70.826 23.1201C69.9613 23.6958 68.9453 24.002 67.9065 24C67.2157 24.0067 66.5304 23.8754 65.891 23.6138C65.2516 23.3522 64.6708 22.9656 64.1828 22.4766C63.6947 21.9876 63.3092 21.4061 63.0488 20.7662C62.7885 20.1263 62.6585 19.4408 62.6665 18.75ZM70.1865 18.75C70.1747 18.3014 70.0307 17.8662 69.7727 17.499C69.5147 17.1319 69.154 16.849 68.7359 16.6859C68.3178 16.5228 67.8609 16.4867 67.4224 16.5822C66.9839 16.6776 66.5833 16.9004 66.2708 17.2225C65.9583 17.5446 65.7478 17.9518 65.6658 18.393C65.5837 18.8342 65.6336 19.2898 65.8093 19.7027C65.985 20.1157 66.2787 20.4676 66.6536 20.7144C67.0284 20.9611 67.4677 21.0918 67.9165 21.09C68.2218 21.096 68.525 21.0389 68.8072 20.9223C69.0894 20.8058 69.3445 20.6323 69.5566 20.4127C69.7687 20.1931 69.9332 19.932 70.0399 19.646C70.1466 19.3599 70.1931 19.0549 70.1765 18.75H70.1865Z" fill="#F97316"/>
<path d="M74.5365 11.1501C74.5365 10.7981 74.6409 10.4539 74.8365 10.1612C75.0321 9.86848 75.3101 9.64034 75.6353 9.50561C75.9606 9.37089 76.3185 9.33564 76.6638 9.40432C77.009 9.473 77.3262 9.64253 77.5752 9.89147C77.8241 10.1404 77.9936 10.4576 78.0623 10.8028C78.131 11.1481 78.0957 11.506 77.961 11.8313C77.8263 12.1565 77.5981 12.4345 77.3054 12.6301C77.0127 12.8257 76.6686 12.9301 76.3165 12.9301C75.846 12.9249 75.3963 12.7357 75.0636 12.403C74.7309 12.0703 74.5417 11.6206 74.5365 11.1501ZM74.8265 13.8001H77.8265V23.7001H74.8265V13.8001Z" fill="#F97316"/>
<path d="M90.6665 18.7501C90.7001 19.4085 90.6032 20.0671 90.3813 20.6879C90.1595 21.3087 89.817 21.8795 89.3737 22.3674C88.9303 22.8554 88.3949 23.2508 87.7981 23.531C87.2014 23.8112 86.5551 23.9706 85.8965 24.0001C85.3376 24.0373 84.7775 23.9478 84.2581 23.7383C83.7386 23.5287 83.2732 23.2046 82.8965 22.7901V27.6801H79.8965V13.8001H82.8965V14.7301C83.2737 14.3168 83.7395 13.9942 84.259 13.7864C84.7785 13.5785 85.3383 13.4909 85.8965 13.5301C86.5525 13.5596 87.1962 13.7181 87.7909 13.9964C88.3856 14.2747 88.9197 14.6675 89.3626 15.1522C89.8056 15.6369 90.1487 16.2041 90.3724 16.8215C90.5961 17.4388 90.6961 18.0941 90.6665 18.7501ZM87.6665 18.7501C87.6547 18.2856 87.506 17.835 87.2392 17.4547C86.9724 17.0744 86.5992 16.7812 86.1665 16.6121C85.7338 16.4429 85.2608 16.4053 84.8067 16.5038C84.3527 16.6023 83.9379 16.8327 83.6142 17.166C83.2905 17.4993 83.0724 17.9207 82.9873 18.3775C82.9021 18.8342 82.9536 19.3059 83.1354 19.7335C83.3172 20.161 83.6211 20.5254 84.0091 20.781C84.3971 21.0366 84.8519 21.1719 85.3165 21.1701C85.6347 21.1836 85.9522 21.1297 86.2481 21.0119C86.5441 20.8941 86.8118 20.7151 87.0337 20.4866C87.2556 20.2581 87.4266 19.9852 87.5357 19.686C87.6448 19.3867 87.6893 19.0678 87.6665 18.7501Z" fill="#F97316"/>
<path d="M99.7965 20.73C99.7965 23.01 97.7965 23.98 95.6765 23.98C94.8118 24.0578 93.9437 23.8745 93.1843 23.4538C92.4249 23.0331 91.8091 22.3943 91.4165 21.62L93.9965 20.16C94.0987 20.5168 94.3203 20.8277 94.6243 21.0407C94.9283 21.2537 95.2962 21.3558 95.6665 21.33C96.3765 21.33 96.7365 21.11 96.7365 20.71C96.7365 19.62 91.8665 20.2 91.8665 16.77C91.8665 14.61 93.6865 13.53 95.7465 13.53C96.5295 13.4949 97.3075 13.6726 97.9976 14.0441C98.6878 14.4156 99.2645 14.9671 99.6665 15.64L97.0865 17C96.9725 16.742 96.7863 16.5226 96.5503 16.3682C96.3142 16.2138 96.0385 16.1311 95.7565 16.13C95.2365 16.13 94.9265 16.33 94.9265 16.68C94.9265 17.82 99.7965 17.07 99.7965 20.73Z" fill="#F97316"/>
<path d="M110.667 13.8V23.7H107.667V22.77C107.326 23.1817 106.893 23.5074 106.404 23.7211C105.914 23.9348 105.381 24.0303 104.847 24C102.847 24 101.137 22.57 101.137 19.9V13.8H104.137V19.45C104.113 19.6862 104.141 19.9247 104.219 20.1491C104.297 20.3734 104.422 20.5782 104.586 20.7494C104.751 20.9205 104.951 21.0539 105.172 21.1404C105.393 21.2268 105.63 21.2642 105.867 21.25C106.947 21.25 107.707 20.61 107.707 19.25V13.8H110.667Z" fill="#F97316"/>
<path d="M127.667 17.62V23.7H124.667V17.88C124.667 16.88 124.197 16.26 123.247 16.26C122.297 16.26 121.697 16.95 121.697 18.12V23.7H118.697V17.88C118.697 16.88 118.227 16.26 117.277 16.26C116.327 16.26 115.727 16.95 115.727 18.12V23.7H112.727V13.8H115.727V14.71C116.038 14.308 116.443 13.9896 116.908 13.7836C117.372 13.5776 117.881 13.4904 118.387 13.53C118.894 13.5035 119.4 13.6095 119.854 13.8374C120.308 14.0653 120.695 14.4074 120.977 14.83C121.307 14.3884 121.743 14.0376 122.245 13.8103C122.746 13.5829 123.298 13.4865 123.847 13.53C126.187 13.53 127.667 15.15 127.667 17.62Z" fill="#F97316"/>
<path d="M130.187 13.7401C131.402 13.7401 132.387 12.7551 132.387 11.5401C132.387 10.3251 131.402 9.34009 130.187 9.34009C128.972 9.34009 127.987 10.3251 127.987 11.5401C127.987 12.7551 128.972 13.7401 130.187 13.7401Z" fill="#F97316"/>
</svg>
